<?xml version="1.0" encoding="UTF-8"?>
<svg id="Calque_1" data-name="Calque 1" xmlns="http://www.w3.org/2000/svg" xmlns:xlink="http://www.w3.org/1999/xlink" viewBox="0 0 566.99 782.26">
  <defs>
    <style>
      .cls-1 {
        fill: url(#Dégradé_sans_nom_62);
      }

      .cls-2 {
        fill: url(#Dégradé_sans_nom_69);
      }

      .cls-3 {
        fill: url(#Dégradé_sans_nom_70);
      }

      .cls-4 {
        fill: url(#Dégradé_sans_nom_66);
      }

      .cls-5 {
        fill: url(#Dégradé_sans_nom_62-3);
      }

      .cls-6 {
        fill: url(#Dégradé_sans_nom_62-2);
      }
    </style>
    <linearGradient id="Dégradé_sans_nom_62" data-name="Dégradé sans nom 62" x1="43.57" y1="258.1" x2="229.63" y2="258.1" gradientUnits="userSpaceOnUse">
      <stop offset="0" stop-color="#04471c"/>
      <stop offset="1" stop-color="#17f07c"/>
    </linearGradient>
    <linearGradient id="Dégradé_sans_nom_62-2" data-name="Dégradé sans nom 62" x1="423.45" y1="473.28" x2="566.99" y2="473.28" xlink:href="#Dégradé_sans_nom_62"/>
    <linearGradient id="Dégradé_sans_nom_62-3" data-name="Dégradé sans nom 62" x1="43.01" y1="690.62" x2="229.62" y2="690.62" xlink:href="#Dégradé_sans_nom_62"/>
    <linearGradient id="Dégradé_sans_nom_66" data-name="Dégradé sans nom 66" x1="232.55" y1="439.83" x2="473.85" y2="439.83" gradientUnits="userSpaceOnUse">
      <stop offset="0" stop-color="#0d2818"/>
      <stop offset="1" stop-color="#058c42"/>
    </linearGradient>
    <linearGradient id="Dégradé_sans_nom_69" data-name="Dégradé sans nom 69" x1="7.28" y1="420.27" x2="346.96" y2="420.27" gradientUnits="userSpaceOnUse">
      <stop offset="0" stop-color="#0d2818"/>
      <stop offset="1" stop-color="#16db65"/>
    </linearGradient>
    <linearGradient id="Dégradé_sans_nom_70" data-name="Dégradé sans nom 70" x1="42.36" y1="562.43" x2="450.6" y2="562.43" gradientUnits="userSpaceOnUse">
      <stop offset="0" stop-color="#0d2818"/>
      <stop offset="1" stop-color="#16db65"/>
    </linearGradient>
  </defs>
  <path class="cls-1" d="m46.07,350.5c-2.2-.52-2.53-6.93-2.5-21.5.05-22.84.92-41.33,1-43,.15-3.12.03-1.13.5-39.5.53-42.65.7-47.34,4.5-54.5.87-1.64,12.1-22.25,33-26,4.41-.79,14.59-1.75,51,18,17.62,9.56,20.11,12.43,38,23,37.85,22.37,59.26,28.76,58,34-1.05,4.37-16.33,1.49-38,5-26.51,4.29-45.14,15.68-61,25-21.3,12.51-34.88,24.99-48.5,37.5-13.86,12.73-20.79,19.1-26.5,28.5-4.35,7.15-7.17,14.05-9.5,13.5Z"/>
  <path class="cls-6" d="m423.57,366c-.89.98,3.2,5.99,4,7,11.01,13.89,24.88,58.56,24,106-.51,27.6-1.02,54.82-17,83-4.79,8.45-10.17,15.56-8,18,4.9,5.52,41.21-21,83-44,.16-.09,10.42-5.73,24-14,9.89-6.02,14.84-9.03,17-11,9.09-8.28,18.54-24.02,16-41-2.02-13.47-10.72-21.94-19-30-8.64-8.41-14.97-11.48-34-22-41.63-23-62.44-34.51-73-42-5.1-3.62-15.73-11.4-17-10Z"/>
  <path class="cls-5" d="m44.57,599c-3.24.79-.13,18.15,1,44,1.1,25.25-.6,54.21-2,78-.67,11.44-1.15,16.56,1,24,.41,1.42,8.27,26.98,33,35,2.15.7,9.9,3.04,20,2,14.85-1.52,24.12-9.24,35-17,18.33-13.07,34.88-21.71,68-39,16.2-8.45,29.96-15.16,29-18-.6-1.79-6.75-1.18-9-1-33.23,2.61-79.64-22.35-92-29-13.03-7.01-29.24-15.87-46-32-11.21-10.79-20.28-19.52-29-34-4.58-7.6-7.06-13.47-9-13Z"/>
  <path class="cls-4" d="m259.57,243c13.78,1.23,24.71,3.34,28,4,1.5.3,24.49,5,46,14,58,24.26,95.52,75.72,100,82,8.03,11.26,20.6,29.19,29,56,4.89,15.6,6.21,27.34,8,44,3.6,33.6,7.03,65.62-6,102-4.25,11.85-8.8,24.57-20,38-11.09,13.3-31.21,23.05-71,42-21.19,10.09-30.52,13.54-43,13-9.32-.4-17.29-2.92-32-10-14.93-7.19-35.62-18.51-59-36,34.67-19,69.33-38,104-57,.13-11.21,3.23-128.77,3-149-.25-22.07-.62-26.68-1-30-2.52-22.27-4.45-39.35-16-54-5.85-7.42-15.57-13.28-35-25-8.29-5-15.65-8.91-29-16-21.23-11.28-33.69-17.13-33-19,.23-.63,1.83-.42,8,0,13.56.93,10.7.26,19,1Z"/>
  <path class="cls-2" d="m143.57,413c2.05-1.15,3.42-2.01,5-3,6.63-4.15-1.07.79,23-14,10.77-6.62,23.9-14.69,42-26,6.72-4.2,15.37-9.62,25.46-16,34.85,21.33,69.7,42.67,104.54,64,.58,13.16,1.37,28.01,2,28,.47,0,.66-8.29,1-31,.85-57.54.57-68.58-4-84-5.57-18.79-12.6-27.48-17-32-5.94-6.09-13.9-11.56-16-13-4.8-3.3-7.85-4.9-17-10-7.69-4.29-15.32-8.68-23-13-10.27-5.78-21.56-9.94-31-17-1.22-.91-3.91-2.99-8-4-3.18-.78-5.48-.49-11,0-10.19.91-8.22.43-13,1,0,0-12.33,1.46-25,5-12.18,3.4-38.2,13.17-68,34-10.56,7.38-27.16,19.14-45,39-7.37,8.2-23.2,26.98-37,55-7.89,16-21.79,44.95-24,85-.96,17.48.67,30.41,2,41,0,0,4.91,38.93,29,88,4.31,8.77,5.57,9.14,6,9,1.21-.4.24-6.41,0-8-1.54-10.04-1.36-26.36-1-59,.24-22.1.46-41.3,12-60,0,0,15.76-25.53,57-45,10.55-4.98,13-6,13-6,6.75-2.81,11.16-4.17,18-8Z"/>
  <path class="cls-3" d="m450.57,575c-.43-.31-6.01,8.78-17,18-7.79,6.53-12.1,7.92-30,17-30.08,15.26-33.86,19.43-50,24-9.36,2.65-14.04,3.98-21,4-12.66.04-23.95-5.64-46-17-9.22-4.75-18.98-9.78-31-18-6.2-4.24-8.95-6.57-16-11-10.33-6.5-18.15-10.15-24-13-29.38-14.34-25.2-16.57-54-31-14.84-7.44-22.22-9.98-25-18-1.55-4.46-.47-7.14,0-22,.22-7,0-14,0-21v-61c.42-5.59.99-6.97,0-8-1.8-1.86-6.93-.71-28,11-14.44,8.03-21.65,12.04-28,17-3.61,2.82-15.02,11.74-23,23-11.35,16.02-12.4,32.07-14,63-1.77,34.25-2.66,51.37,5,70,7.98,19.4,20.08,30.97,34,44,26.56,24.87,54.39,38.18,72,45,16.6,6.43,82.28,30.75,159,5,56.28-18.89,89.21-54.9,100-67,22.43-25.14,37.75-53.46,37-54Z"/>
</svg>